<svg width="90" height="90" viewBox="0 0 90 90" fill="none" xmlns="http://www.w3.org/2000/svg">
<path d="M65.4844 31.033V30.7449C65.2672 28.5128 62.3712 27.0007 56.7242 25.9926V25.4886C56.7242 21.3843 52.8146 18 48.0363 18H40.1449C35.3666 18 31.4571 21.3843 31.4571 25.4886V26.2086C26.6787 27.2167 24.2172 28.7288 24 30.7449V53.3546C24 62.2833 29.2127 71.5 29.4299 71.932L29.8643 72.7241H59.6201L60.0545 71.932C60.2717 71.572 65.4844 62.2833 65.4844 53.3546V31.033ZM33.3394 29.1608L34.715 28.9448V25.4886C34.715 23.1124 37.1765 21.2402 40.1449 21.2402H48.0363C51.0047 21.2402 53.4662 23.1844 53.4662 25.4886V28.8008L54.8418 29.0168C59.4029 29.6649 61.4301 30.6009 62.0816 31.105C60.7785 32.1851 54.8418 33.8412 44.7784 33.8412C34.715 33.8412 28.7783 32.1851 27.4751 31.105C28.0543 30.6009 29.7195 29.8089 33.3394 29.1608ZM57.6653 69.4838H31.819C30.5883 67.1077 27.2579 59.9791 27.2579 53.3546V34.5612C31.4571 36.3614 38.6245 36.8654 42.4616 37.0094V59.7631H36.0182V63.0033H42.4616H45.7196H52.163V59.7631H45.7196V37.0094C48.8327 36.9374 57.5205 36.6494 62.2988 34.5612V53.3546C62.2264 59.9791 58.8961 67.1077 57.6653 69.4838Z" fill="black"/>
</svg>
