<svg width="90" height="90" viewBox="0 0 90 90" fill="none" xmlns="http://www.w3.org/2000/svg">
<path d="M71.1371 29.2196H69.3823C69.0574 24.9106 68.4075 20.7945 67.1727 18.3506L66.5228 17.0643L63.9231 18.3506L64.5731 19.6369C65.8729 22.2094 66.5228 27.6117 66.6527 33.5286V40.2172C65.3529 39.1239 63.5982 38.0948 61.6485 37.9662C59.6988 37.8376 57.944 38.6093 56.4492 40.2815C54.9545 41.8893 53.5247 43.1756 52.1599 44.1403V27.4188C52.1599 26.647 51.51 25.9396 50.6651 25.9396H38.0569C37.277 25.9396 36.5621 26.5827 36.5621 27.4188V43.4329C35.4573 42.5325 34.3525 41.5035 33.1826 40.2172C31.6229 38.6094 29.8681 37.8376 27.9834 37.9019C26.0337 38.0305 24.2789 39.0595 22.9791 40.1529C22.7842 31.9851 23.2391 23.1741 25.0588 19.5725L25.7087 18.2863L23.1091 17L22.4592 18.2863C21.2244 20.7302 20.5745 24.8462 20.2495 29.1553H18.3648C17.5849 29.1553 17 30.6988 17 32.6282V38.0948C17 40.0242 17.5849 41.5678 18.3648 41.5678H20.0546C20.0546 42.4038 20.1195 43.1756 20.1195 43.7544C20.1195 44.3976 20.5745 44.9121 21.1594 45.0407C21.6793 45.1693 22.1992 45.0407 22.5892 44.6548C22.3942 51.2148 22.2642 64.9779 25.1888 70.5732L25.8387 71.8594L28.4383 70.5088L27.7884 69.2226C25.1238 64.2061 25.1888 49.607 25.6437 41.825V41.7607C26.4236 41.2462 27.2685 40.8603 28.1134 40.8603C29.1532 40.796 30.1281 41.2462 31.038 42.2109C32.7277 44.0117 34.4175 45.5552 36.0422 46.7128L36.5621 47.0987V58.0963H33.9625C33.3776 58.0963 32.8577 58.4179 32.5977 58.9324C32.3378 59.4469 32.4677 60.0901 32.8577 60.476L43.3212 72.0524C43.5811 72.374 43.9711 72.5669 44.426 72.5669C44.8809 72.5669 45.2709 72.374 45.5308 72.0524L55.9943 60.476C56.3843 60.0258 56.4492 59.4469 56.2543 58.9324C56.0593 58.4179 55.4744 58.0963 54.8895 58.0963H52.2249V47.6775L52.2898 47.6132C54.3046 46.3913 56.4492 44.5905 58.6589 42.2109C59.5688 41.2462 60.5436 40.796 61.5835 40.8603C62.4284 40.9246 63.2732 41.2462 64.0531 41.7607V41.825C64.5081 49.607 64.5081 64.2061 61.9084 69.2226L61.2585 70.5088L63.8582 71.8594L64.5081 70.5732C67.4326 64.9779 67.3676 51.2791 67.1077 44.6548C67.4976 45.0407 68.0176 45.1693 68.5375 45.0407C69.1224 44.8478 69.5123 44.3333 69.5773 43.6901C69.5773 43.047 69.6423 42.3395 69.6423 41.5035H71.2021C71.982 41.5035 72.5669 39.9599 72.5669 38.0305V32.5639C72.5019 30.7631 71.917 29.2196 71.1371 29.2196ZM44.361 68.9653L37.212 60.9905H38.0569C38.8368 60.9905 39.5517 60.3473 39.5517 59.5112V28.8337H49.3003V59.5112C49.3003 60.283 49.9502 60.9905 50.7951 60.9905H51.7049L44.361 68.9653Z" fill="black"/>
</svg>
