<svg width="90" height="90" viewBox="0 0 90 90" fill="none" xmlns="http://www.w3.org/2000/svg">
<path fill-rule="evenodd" clip-rule="evenodd" d="M37.4213 15V25.3616C37.4213 29.1692 36.2307 32.8519 34.0374 35.9105L32.0321 33.8507C33.7241 31.3539 34.6014 28.4202 34.6014 25.3616V15H37.4213ZM45.1294 36.8468L49.6414 42.4021L51.6467 40.4047L45.1294 32.3526L38.6749 40.4047L40.6802 42.4021L45.1294 36.8468ZM33.1602 47.271L27.395 54.3868H35.1655V56.8836L37.9855 54.0747V52.0773V51.5779H37.4842H33.2856L35.1655 49.2684L33.1602 47.271ZM37.9849 70.1787H52.3353V66.4335L55.1553 69.2424V72.9876H35.1649V69.2424L37.9849 66.4335V70.1787ZM27.7079 41.9027L25.7026 39.9053C22.068 43.276 20 48.0822 20 53.1382V63.0005H22.82V53.1382C22.82 48.8313 24.6373 44.774 27.7079 41.9027ZM58.5393 33.5386C57.0353 31.1042 56.158 28.2953 56.158 25.3616V15H53.338V25.3616C53.338 29.0444 54.466 32.6023 56.4713 35.5984L58.5393 33.5386ZM62.8633 41.6528L64.8686 39.6554C68.6286 43.0884 70.8219 47.9572 70.8219 53.138V63.0002H68.0019V53.138C68.0019 48.7062 66.1219 44.5865 62.8633 41.6528ZM52.3355 51.5779V52.0773V54.0747L55.1555 56.8836V54.3868H62.926L57.1608 47.271L55.1555 49.2684L57.0354 51.5779H52.8368H52.3355ZM47.3855 53.2629L49.2655 55.1979L67.4385 73.2995L65.4332 75.2969L55.1561 65.0601L52.3361 62.2513L47.2602 57.1953L45.1295 55.073L43.0616 57.1953L37.9857 62.2513L24.8885 75.2969L22.8832 73.2995L35.1657 61.0653L37.9857 58.2564L41.0563 55.1979L41.4949 54.7609L43.1869 53.0756L37.0457 46.9585L35.0404 44.9611L30.0271 40.03L28.0218 37.9701L22.8832 32.8517L24.8885 30.8543L30.2151 36.16L32.1577 38.1574L36.795 42.7764L38.8003 44.7738L43.0616 49.0184L45.1295 51.0782L51.5214 44.7738L52.2108 44.0872L65.4332 30.8543L67.4385 32.8517L62.4879 37.7829L60.4826 39.7803L55.2814 44.9611L47.1348 53.0756L47.3855 53.2629Z" fill="white"/>
</svg>
