<svg width="90" height="90" viewBox="0 0 90 90" fill="none" xmlns="http://www.w3.org/2000/svg">
<path fill-rule="evenodd" clip-rule="evenodd" d="M75.9635 42.8005L75.8202 41.1506C75.8202 41.0071 75.8023 40.8816 75.7843 40.756C75.7664 40.6305 75.7485 40.505 75.7485 40.3615C75.7485 40.2539 75.7306 40.1463 75.7127 40.0387L75.7127 40.0387L75.7127 40.0386C75.6947 39.931 75.6768 39.8234 75.6768 39.7159V39.5006L75.4618 37.9942H75.3901C75.1034 36.5594 74.6734 35.1964 74.2433 33.8334H74.315L73.6699 32.327C73.5624 32.1118 73.4728 31.8965 73.3832 31.6813C73.2936 31.4661 73.204 31.2509 73.0965 31.0357V30.964L72.3797 29.5292H72.308C71.5913 28.238 70.8028 27.0902 69.9427 25.9424L70.0144 25.8706L69.0109 24.6511C68.8317 24.4718 68.6705 24.2745 68.5092 24.0772C68.3479 23.88 68.1866 23.6827 68.0075 23.5033L66.9323 22.3556L66.8606 22.4273C65.8572 21.423 64.7103 20.4904 63.5635 19.6296V19.5578L62.2017 18.697C61.9866 18.5535 61.7716 18.428 61.5566 18.3024C61.3415 18.1769 61.1265 18.0514 60.9115 17.9079L59.478 17.1188V17.1905C58.1878 16.5449 56.8976 15.971 55.4641 15.5406V15.4688L53.8872 15.0384L53.8871 15.0384C53.6721 14.9667 53.4571 14.8949 53.3138 14.8949L52.4537 14.6797L50.8768 14.321V14.3928C49.4433 14.1776 48.0814 14.0341 46.5762 13.9624V13.8906H45.286H44.1392V13.9624H44.139C43.9241 13.9624 43.7091 13.9624 43.4941 14.0341L41.8456 14.1776L42.0606 17.4057L43.6375 17.2622C43.8525 17.2622 44.0854 17.2443 44.3184 17.2264C44.5513 17.2084 44.7843 17.1905 44.9993 17.1905H45.286H45.3577H45.7161C47.938 17.1905 50.0167 17.4774 52.0953 17.9796C52.3103 18.0513 52.597 18.1231 52.812 18.1231C62.9901 20.8491 70.8028 29.4575 72.4514 40.0028V40.1463V40.3615C72.6664 41.6527 72.7381 42.944 72.7381 44.2353C72.7381 45.8135 72.5947 47.3917 72.308 48.8982C72.308 48.9699 72.308 49.0416 72.2364 49.1134C71.8063 51.6959 70.9462 54.1349 69.7277 56.5023V56.574L69.656 56.7175L69.656 56.7175C69.5843 56.861 69.5126 57.0045 69.3693 57.2196L68.5809 58.6544L71.4479 60.1608L71.8063 59.4435L72.5231 58.0087C72.5231 57.9729 72.541 57.9549 72.5589 57.937C72.5768 57.9191 72.5947 57.9011 72.5947 57.8652L72.5948 57.8652C72.6664 57.7217 72.7381 57.5783 72.8098 57.3631L72.8814 57.1479L73.4549 55.8566H73.3832C73.9566 54.4936 74.3867 53.1306 74.745 51.7676H74.8167L75.0317 50.8351V50.7633L75.1751 50.1894C75.208 50.0907 75.2258 49.992 75.2423 49.9002C75.2618 49.7919 75.2796 49.6932 75.3184 49.6155C75.3573 49.499 75.375 49.3825 75.3946 49.2546C75.4111 49.1463 75.4289 49.0298 75.4618 48.8982C75.4618 48.8264 75.4797 48.7547 75.4976 48.6829C75.5156 48.6112 75.5335 48.5395 75.5335 48.4677L75.7485 47.1047H75.6768C75.7485 46.1722 75.8202 45.2396 75.8202 44.2353C76.0352 43.8048 76.0352 43.3027 75.9635 42.8005ZM36.4698 18.8045C36.2548 18.8942 36.0398 18.9838 35.8247 19.0556L34.3195 19.5577L33.1727 16.5448L34.6779 15.9709C34.9288 15.8992 35.1617 15.8095 35.3947 15.7198C35.6276 15.6301 35.8606 15.5405 36.1114 15.4687L37.6166 14.9666L38.6201 18.0513L37.1149 18.5534C36.8999 18.6252 36.6848 18.7148 36.4698 18.8045ZM28.0838 19.7015C27.6538 19.9884 27.2954 20.2754 26.8653 20.634L25.5751 21.6383L27.5821 24.1491L28.8723 23.1448L28.8723 23.1448C29.2307 22.8578 29.589 22.5709 29.9474 22.3557L31.2376 21.3514L29.374 18.6971L28.0838 19.7015ZM19.9128 52.3414C19.7694 51.911 19.6261 51.4805 19.5544 51.0501L19.1244 49.4719L16.0423 50.261L16.4723 51.8392C16.6157 52.3414 16.759 52.8435 16.9024 53.2739L17.4041 54.7804L20.4862 53.8478L19.9128 52.3414ZM22.7079 58.5109L21.8478 57.1479L19.1241 58.8696L19.9842 60.2326L19.9843 60.2327C20.271 60.6631 20.5577 61.0935 20.7727 61.5239L21.7045 62.8151L24.3565 61.0217L23.4247 59.6587C23.2901 59.3892 23.1273 59.1478 22.9717 58.917L22.9717 58.917L22.9716 58.9169C22.8787 58.7791 22.7883 58.645 22.7079 58.5109ZM26.7221 63.6045L27.9406 64.6805C28.0759 64.816 28.2273 64.9515 28.3871 65.0945C28.5657 65.2544 28.7549 65.4238 28.944 65.6131L30.2342 66.6174L28.2273 69.1282L26.9371 68.1239C26.7579 67.9445 26.5608 67.7831 26.3637 67.6217L26.3636 67.6216C26.1665 67.4602 25.9694 67.2989 25.7903 67.1195L24.5718 66.0435L26.7221 63.6045ZM19.9126 36.3443L20.3426 35.0531L20.9161 33.5466L17.9057 32.4706L17.3322 33.977C17.2606 34.2281 17.171 34.4613 17.0814 34.6944L17.0814 34.6944L17.0814 34.6944C16.9918 34.9276 16.9022 35.1607 16.8305 35.4118L16.3288 36.99L19.4109 37.9226L19.9126 36.3443ZM18.7659 42.9439C18.6942 43.3743 18.6942 43.8764 18.6942 44.3069V46.0285H15.4688V44.3069C15.4688 44.0558 15.4867 43.8047 15.5046 43.5536C15.5225 43.3025 15.5404 43.0515 15.5404 42.8004L15.6121 41.1504L18.8375 41.2939L18.7659 42.9439ZM23.4248 29.0273C23.6398 28.6687 23.9265 28.31 24.2132 27.9513L25.2167 26.66L22.6363 24.7231L21.6329 26.0144C21.4896 26.2295 21.3462 26.4268 21.2029 26.624L21.2029 26.624L21.2029 26.624L21.2029 26.6241L21.2029 26.6241L21.2029 26.6241L21.2028 26.6241L21.2028 26.6242C21.0595 26.8214 20.9161 27.0187 20.7728 27.2339L19.841 28.5252L22.493 30.3186L23.4248 29.0273ZM33.1727 68.3389L34.6779 68.9845C34.9897 69.1405 35.3016 69.2589 35.5861 69.3668C35.6939 69.4078 35.7979 69.4472 35.8964 69.4867L37.4016 70.0605L36.2548 73.0735L34.7495 72.4996C34.3195 72.3561 33.8178 72.1409 33.3877 71.9257L31.8825 71.2801L33.1727 68.3389ZM51.2355 70.8494L51.2354 70.8495L51.2354 70.8495L51.2353 70.8495L51.2353 70.8495C51.0203 70.9033 50.8053 70.9571 50.5903 70.993L49.0134 71.2799L49.5869 74.4363L51.1637 74.1494C51.4146 74.1135 51.6655 74.0597 51.9163 74.0059C52.1672 73.9521 52.4181 73.8983 52.6689 73.8624L54.2458 73.5038L53.5291 70.3473L51.8805 70.706C51.6655 70.7418 51.4505 70.7956 51.2355 70.8494ZM65.0074 63.3228C65.2222 63.1238 65.4486 62.9143 65.6423 62.672L66.7174 61.4525L69.0827 63.6763L68.0076 64.8241L66.9324 65.9002L65.7856 67.0479L63.5636 64.7524L64.7105 63.6046C64.8035 63.5115 64.9041 63.4183 65.0074 63.3228ZM59.335 67.6929C59.1199 67.8005 58.9228 67.9081 58.7257 68.0157C58.5286 68.1233 58.3315 68.2309 58.1165 68.3385L56.6829 69.0559L58.1881 71.9254L59.6217 71.208C59.8367 71.1004 60.0517 70.9749 60.2667 70.8493C60.4818 70.7238 60.6968 70.5982 60.9118 70.4906L62.2737 69.7015L60.6251 66.9038L59.335 67.6929ZM40.9141 70.9213L42.491 71.1366L42.4911 71.1366C42.9211 71.2083 43.3511 71.28 43.8528 71.28L45.4297 71.4235L45.2147 74.6518L43.6378 74.5083C43.3869 74.4724 43.136 74.4545 42.8852 74.4365C42.6343 74.4186 42.3834 74.4007 42.1326 74.3648L40.5557 74.1496L40.9141 70.9213ZM58.6179 41.8681L42.2757 59.3719C41.989 59.7305 41.5589 59.874 41.0572 59.874C40.8421 59.874 40.5554 59.8023 40.2687 59.6588C39.6236 59.3001 39.3369 58.511 39.552 57.7936L42.3473 49.4005H34.1045C33.4595 49.4005 32.886 48.97 32.5993 48.3962C32.3126 47.8223 32.456 47.1766 32.886 46.6745L49.2283 29.1707C49.73 28.5968 50.5901 28.5251 51.2352 28.8837C51.8803 29.2424 52.167 30.0315 51.952 30.7489L49.1566 39.1421H57.3994C58.0445 39.1421 58.6179 39.5725 58.9046 40.1464C59.1913 40.7203 59.0479 41.3659 58.6179 41.8681ZM46.5762 36.8465L37.8317 46.1723H44.5693C45.071 46.1723 45.5728 46.3875 45.8595 46.8179C46.1462 47.1766 46.2179 47.7505 46.0745 48.2527L44.9277 51.696L53.6722 42.3702H46.9346C46.4329 42.3702 45.9312 42.155 45.6444 41.7246C45.3577 41.2942 45.2861 40.792 45.4294 40.2899L46.5762 36.8465Z" fill="white"/>
</svg>
