<svg width="90" height="90" viewBox="0 0 90 90" fill="none" xmlns="http://www.w3.org/2000/svg">
<path fill-rule="evenodd" clip-rule="evenodd" d="M41.144 41.1936C40.6118 43.3889 39.4143 45.5177 37.6847 47.4469C34.8241 50.6401 33.3606 59.8206 33.3606 63.8786V65.4087H48.9274H51.921H67.4879V63.8786C67.4879 59.8206 66.0243 50.6401 63.1638 47.4469C61.4341 45.5177 60.2367 43.3889 59.7045 41.1936C57.5674 32.5841 60.8105 22.5176 61.3577 20.8188L61.3578 20.8186C61.4068 20.6667 61.4341 20.5817 61.4341 20.5708L61.9663 19.1738L59.1723 18.1094L58.6401 19.5064C58.4405 19.9721 54.2494 31.614 56.7774 41.9253C57.4426 44.6529 58.8396 47.1808 60.9019 49.4427C62.6981 51.4384 64.1616 58.0244 64.4277 62.3485H51.921H48.9274H36.4207C36.6868 58.0244 38.1504 51.4384 39.9465 49.4427C42.0088 47.1143 43.4058 44.5863 44.0711 41.9253C46.6656 31.6805 42.408 20.0386 42.2084 19.5064L41.6762 18.1094L38.8821 19.1738L39.4143 20.5708C39.4809 20.7038 43.5389 31.8135 41.144 41.1936ZM29.7686 47.447L38.6164 40.5284L32.1635 35.4725L34.9575 32.6785L32.8287 30.5497L29.7686 33.6098L29.702 33.5433C28.172 32.3458 26.3093 31.6806 24.3135 31.6806C19.4572 31.6806 15.5322 35.6056 15.5322 40.4619C15.5322 42.5242 16.264 44.3869 17.3949 45.8504L15 48.3784L17.1288 50.5072L19.6568 47.9792C20.9873 48.844 22.5839 49.3097 24.3135 49.3097C26.3093 49.3097 28.172 48.6445 29.7686 47.447ZM18.5258 40.5284C18.5258 37.3352 21.1203 34.7407 24.3135 34.7407C25.511 34.7407 26.6419 35.0734 27.5732 35.7386L19.5902 43.7881C18.925 42.8568 18.5258 41.7259 18.5258 40.5284ZM30.0347 37.6013L33.7601 40.5284L27.9724 45.0521L28.5046 45.7839L27.9059 45.1186L28.4381 45.7839L27.8393 45.1852C26.8415 45.9835 25.5775 46.3826 24.3135 46.3826C23.4487 46.3826 22.5839 46.183 21.8521 45.8504L30.0347 37.6013ZM72.5439 66.8722V54.2324H75.5375V66.8722C75.5375 69.7993 73.2091 72.1277 70.282 72.1277H30.6331C27.706 72.1277 25.3776 69.7993 25.3776 66.8722V54.9642H28.3712V66.8722C28.3712 68.1361 29.3691 69.134 30.6331 69.134H70.282C71.546 69.134 72.5439 68.1361 72.5439 66.8722Z" fill="white"/>
</svg>
