<svg width="127" height="53" viewBox="0 0 127 53" fill="none" xmlns="http://www.w3.org/2000/svg">
<g clip-path="url(#clip0_2_300)">
<path d="M16.3989 31.9286V31.9012C17.8558 30.8893 20.1827 29.1596 20.1827 23.5943C20.1827 16.4087 16.3782 13.1475 11.2272 13.1475H0V52.624H11.172C17.5037 52.624 20.5901 47.9954 20.5901 41.1037C20.5901 34.6838 18.0353 32.9131 16.3989 31.9286ZM6.60099 19.246H10.1846C12.0351 19.246 13.5334 20.5861 13.5334 24.278C13.5334 28.011 11.8072 29.3032 10.1846 29.3032H6.60099V19.246ZM10.2743 46.5391H6.60099V35.4017H10.2743C12.7877 35.4017 13.9546 37.2477 13.9546 40.5568C13.9546 45.0965 12.5598 46.5391 10.2743 46.5391Z" fill="white"/>
<path d="M46.1931 39.4218C46.1931 34.5061 44.6395 33.1182 42.5335 31.9354V31.908C43.9905 30.8962 46.2967 29.1664 46.2967 23.6012C46.2967 16.4155 42.5059 13.1611 37.3618 13.1611H26.1346V52.6377H32.7287L32.7356 35.4154C32.7356 35.4154 34.5309 35.4154 36.3192 35.4154C38.1973 35.4154 39.5369 36.9537 39.5369 40.4406V52.6377H46.1931V39.4218ZM32.7356 19.246H36.3192C38.1697 19.246 39.6612 20.5861 39.6612 24.278C39.6612 28.011 37.9349 29.3032 36.3192 29.3032H32.7356V19.246Z" fill="white"/>
<path d="M63.3583 0C60.5688 0 52.4695 0.622162 52.4695 8.60772V52.6377H59.0704V35.4085H67.6393V52.6308H74.2472V8.60772C74.2472 0.608488 66.141 0 63.3583 0ZM59.0635 9.5854C59.0635 6.61816 61.8324 6.23529 63.3583 6.23529C64.8843 6.23529 67.6393 6.61133 67.6393 9.5854V29.2963H59.0566L59.0635 9.5854Z" fill="white"/>
<path d="M94.0225 13.1475V44.2214C94.0225 45.8007 92.6968 46.8604 90.722 46.8604C88.7403 46.8604 87.4353 45.8007 87.4353 44.2214V13.1475L80.8343 13.1543V45.2606C80.8343 51.3728 87.2144 53 90.7289 53C94.2159 53 100.617 51.366 100.617 45.2537V13.1475H94.0225Z" fill="white"/>
<path d="M120.406 52.624V21.5638C120.406 19.9845 119.08 18.9247 117.112 18.9247C115.131 18.9247 113.826 19.9845 113.826 21.5638L113.819 52.624L107.218 52.6309V20.5246C107.218 14.4124 113.598 12.7852 117.112 12.7852C120.599 12.7852 127 14.4192 127 20.5314V52.624H120.406Z" fill="white"/>
</g>
<defs>
<clipPath id="clip0_2_300">
<rect width="127" height="53" fill="white"/>
</clipPath>
</defs>
</svg>
